<?xml version="1.0" encoding="UTF-8"?><svg id="Logos" xmlns="http://www.w3.org/2000/svg" xmlns:xlink="http://www.w3.org/1999/xlink" viewBox="0 0 282.68 282.85"><defs><clipPath id="clippath"><path d="M241.26,41.59c27.35,27.18,41.1,62.94,41.42,98.7v2.43c-.32,35.76-14.08,71.36-41.42,98.7s-63.11,41.1-99.03,41.42h-1.78c-35.92-.16-71.68-14.08-99.03-41.42S.32,178.32,0,142.39v-1.94c.16-35.92,14.08-71.68,41.42-99.03C68.93,13.75,105.18,0,141.26,0c36.25.16,72.49,13.92,100,41.59Z" style="fill:none;"/></clipPath><linearGradient id="Dégradé_sans_nom_2" x1="-560.13" y1="112.45" x2="-547.28" y2="112.45" gradientTransform="translate(-6718.64 10498.05) rotate(135) scale(21.99)" gradientUnits="userSpaceOnUse"><stop offset="0" stop-color="#a0c9ec"/><stop offset=".05" stop-color="#8ebae4"/><stop offset=".2" stop-color="#5890cd"/><stop offset=".33" stop-color="#4d7abb"/><stop offset=".65" stop-color="#364793"/><stop offset=".81" stop-color="#30377f"/><stop offset=".92" stop-color="#30336b"/><stop offset="1" stop-color="#2c2d5a"/></linearGradient><clipPath id="clippath-1"><path d="M271.03,141.42c0,71.52-57.93,129.61-129.61,129.61S11.81,212.94,11.81,141.42,69.9,11.81,141.42,11.81s129.61,58.09,129.61,129.61Z" style="fill:none;"/></clipPath><linearGradient id="Dégradé_sans_nom_2-2" x1="-579.4" y1="155.18" x2="-566.55" y2="155.18" gradientTransform="translate(5526.63 -10338.22) rotate(-47.65) scale(19.85)" xlink:href="#Dégradé_sans_nom_2"/><clipPath id="clippath-2"><path d="M142.23,17.31h2.27c66.34,1.62,119.9,55.34,121.03,121.84-7.44,3.4-14.56,7.12-22.98,10.03-10.52,3.56-22.98,6.15-41.1,6.15-59.87,0-59.87-28.48-119.74-28.48-17.96,0-30.58,2.59-41.1,6.15-8.58,2.91-15.7,6.63-22.98,10.03v-1.94c0-68.45,55.5-124.11,123.95-124.11.16.32.32.32.65.32Z" style="fill:none;"/></clipPath><linearGradient id="Dégradé_sans_nom_9" x1="-515.59" y1="107.16" x2="-502.74" y2="107.16" gradientTransform="translate(908.55 3708.64) rotate(90) scale(7.16)" gradientUnits="userSpaceOnUse"><stop offset="0" stop-color="#fff"/><stop offset=".15" stop-color="#bedbf2"/><stop offset=".23" stop-color="#a0c9ec"/><stop offset=".29" stop-color="#8fb7e1"/><stop offset=".39" stop-color="#769ad0"/><stop offset=".51" stop-color="#6484c1"/><stop offset=".64" stop-color="#5675b7"/><stop offset=".79" stop-color="#4e6cb0"/><stop offset="1" stop-color="#4d69ae"/></linearGradient><clipPath id="clippath-3"><path d="M265.37,139.32c-7.44,3.4-14.56,7.12-22.98,10.03.16-2.27.16-4.53.16-6.96.81-67.8-43.04-123.3-98.22-125.08,66.5,1.78,119.9,55.5,121.03,122.01Z" style="fill:none;"/></clipPath><linearGradient id="Dégradé_sans_nom_6" x1="-532.81" y1="110.07" x2="-519.97" y2="110.07" gradientTransform="translate(1375.62 5663.91) rotate(90) scale(10.64)" gradientUnits="userSpaceOnUse"><stop offset="0" stop-color="#e6e7e7"/><stop offset=".09" stop-color="#a0c9ec"/><stop offset=".18" stop-color="#769ad0"/><stop offset=".27" stop-color="#5878b9"/><stop offset=".32" stop-color="#4d69ae"/><stop offset=".69" stop-color="#3a4b96"/><stop offset="1" stop-color="#30377f"/></linearGradient><clipPath id="clippath-4"><path d="M265.37,141.42c0,68.45-55.5,123.95-123.95,123.95h-.81c53.72.16,98.06-50.97,101.62-116.02,8.58-2.91,15.53-6.63,22.98-10.03.16.81.16,1.46.16,2.1Z" style="fill:none;"/></clipPath><linearGradient id="Dégradé_sans_nom_7" x1="-609.55" y1="151.11" x2="-596.7" y2="151.11" gradientTransform="translate(-1800.65 -7760.43) rotate(-90) scale(13.26)" gradientUnits="userSpaceOnUse"><stop offset="0" stop-color="#e6e7e7"/><stop offset=".09" stop-color="#a0c9ec"/><stop offset=".18" stop-color="#769ad0"/><stop offset=".27" stop-color="#5878b9"/><stop offset=".32" stop-color="#4d69ae"/><stop offset=".58" stop-color="#3a4b96"/><stop offset=".81" stop-color="#30377f"/><stop offset=".92" stop-color="#30336b"/><stop offset="1" stop-color="#2c2d5a"/></linearGradient><clipPath id="clippath-5"><path d="M142.23,17.31c-53.72-.16-98.06,50.97-101.62,116.02-8.58,2.91-15.7,6.63-22.98,10.03v-1.94c0-68.45,55.5-124.11,123.95-124.11h.65Z" style="fill:none;"/></clipPath><linearGradient id="Dégradé_sans_nom_6-2" x1="-532.77" y1="120.99" x2="-519.91" y2="120.99" gradientTransform="translate(1366.53 5663.42) rotate(90) scale(10.64)" xlink:href="#Dégradé_sans_nom_6"/><clipPath id="clippath-6"><path d="M40.29,140.29c-.81,67.8,43.04,123.3,98.22,125.08-66.5-1.62-119.9-55.34-121.03-121.84,7.44-3.4,14.56-7.12,22.98-10.03-.16,2.1-.16,4.53-.16,6.8Z" style="fill:none;"/></clipPath><linearGradient id="Dégradé_sans_nom_7-2" x1="-609.59" y1="142.38" x2="-596.74" y2="142.38" gradientTransform="translate(-1809.89 -7761.05) rotate(-90) scale(13.26)" xlink:href="#Dégradé_sans_nom_7"/><clipPath id="clippath-7"><path d="M201.29,155.66c18.12,0,30.58-2.59,41.1-6.15-3.56,65.05-48.06,116.18-101.62,116.02h-2.27c-55.18-1.62-98.87-57.28-98.22-125.08,0-2.27.16-4.69.32-6.96,10.52-3.56,22.98-6.15,41.1-6.15,59.71-.16,59.71,28.32,119.58,28.32Z" style="fill:none;"/></clipPath><linearGradient id="Dégradé_sans_nom_8" x1="-521.26" y1="115.61" x2="-508.41" y2="115.61" gradientTransform="translate(1368.25 5662.86) rotate(90) scale(10.62)" gradientUnits="userSpaceOnUse"><stop offset="0" stop-color="#3a509a"/><stop offset="1" stop-color="#5165a9"/></linearGradient><clipPath id="clippath-8"><path d="M142.23,17.31h2.27c55.18,1.62,98.87,57.28,98.22,125.08,0,2.27-.16,4.69-.16,6.96-10.52,3.56-22.98,6.15-41.1,6.15-59.87,0-59.87-28.48-119.74-28.48-17.96,0-30.58,2.59-41.1,6.15,3.56-64.89,47.73-116.02,101.29-116.02,0,.16.16.16.32.16Z" style="fill:none;"/></clipPath><linearGradient id="Dégradé_sans_nom_9-2" x1="-515.53" y1="107.14" x2="-502.69" y2="107.14" gradientTransform="translate(908.82 3707.76) rotate(90) scale(7.16)" xlink:href="#Dégradé_sans_nom_9"/><clipPath id="clippath-9"><rect x=".16" y=".16" width="282.52" height="282.52" style="fill:none;"/></clipPath><clipPath id="clippath-10"><rect x=".16" y=".16" width="282.52" height="282.52" style="fill:none;"/></clipPath></defs><g id="Laag_2"><g style="clip-path:url(#clippath);"><polygon points="141.42 -141.1 -141.1 141.42 141.42 423.94 423.94 141.42 141.42 -141.1" style="fill:url(#Dégradé_sans_nom_2);"/></g><g style="clip-path:url(#clippath-1);"><polygon points="153.4 400 400 129.45 129.45 -117.15 -117.15 153.4 153.4 400" style="fill:url(#Dégradé_sans_nom_2-2);"/></g><g style="clip-path:url(#clippath-2);"><rect x="17.31" y="17.31" width="248.06" height="138.19" style="fill:url(#Dégradé_sans_nom_9);"/></g><g style="clip-path:url(#clippath-3);"><rect x="144.34" y="17.48" width="121.03" height="131.88" style="fill:url(#Dégradé_sans_nom_6);"/></g><g style="clip-path:url(#clippath-4);"><rect x="140.61" y="139.32" width="124.76" height="126.21" style="fill:url(#Dégradé_sans_nom_7);"/></g><g style="clip-path:url(#clippath-5);"><rect x="17.31" y="17.15" width="124.76" height="126.21" style="fill:url(#Dégradé_sans_nom_6-2);"/></g><g style="clip-path:url(#clippath-6);"><rect x="17.48" y="133.33" width="121.03" height="131.88" style="fill:url(#Dégradé_sans_nom_7-2);"/></g><g style="clip-path:url(#clippath-7);"><rect x="39.48" y="127.18" width="202.91" height="138.35" style="fill:url(#Dégradé_sans_nom_8);"/></g><g style="clip-path:url(#clippath-8);"><rect x="40.45" y="17.31" width="202.75" height="138.19" style="fill:url(#Dégradé_sans_nom_9-2);"/></g><g style="clip-path:url(#clippath-9);"><path d="M160.35,178.96c5.02,4.85,10.19,7.12,15.37,6.63,8.74-.65,16.83-7.93,24.27-22.01,6.63-12.94,10.68-28.32,11.97-45.95,1.29-16.5-.16-31.07-4.37-44.01-4.21-12.94-10.84-18.93-20.06-18.45-8.9.65-16.83,9.06-23.95,25.24-3.88,8.74-7.77,21.04-11.65,36.89-6.63-14.08-12.78-24.27-18.45-30.74-5.66-6.8-12.14-10.03-19.26-9.55-10.36.65-20.06,8.74-28.96,23.95s-14.24,34.47-16.02,58.09c-1.78,22.98.16,40.61,5.83,53.07,5.66,12.3,13.11,18.28,22.17,17.64,11.81-.81,22.49-10.68,31.88-29.77,5.83-11.65,10.84-26.38,15.21-43.85,5.66,10.52,11,18.12,16.02,22.82M167.15,94.01c5.18-8.58,11.65-13.27,19.26-13.75,6.15-.49,11.33,2.43,15.7,8.74s5.99,15.7,5.02,28.16c-.97,12.46-3.72,22.01-8.41,28.64-4.69,6.8-9.71,10.36-15.21,10.68-5.5.32-10.68-2.27-15.21-8.09-4.53-5.66-9.06-13.92-13.11-24.6,4.69-14.56,8.9-24.43,11.97-29.77M84.14,122.49c5.66-10.52,12.94-16.02,22.01-16.67,3.88-.32,7.44.65,10.52,2.91,3.07,2.1,5.66,4.85,8.09,7.93,2.91,4.69,5.99,9.87,8.9,15.53,2.91,5.66,5.66,11.33,7.93,17.15-3.24,13.92-8.58,26.54-15.7,37.86-7.12,11.33-15.7,17.31-25.4,17.96-10.19.65-17.31-3.72-21.52-13.11-4.21-9.39-5.66-21.2-4.69-35.44.81-12.3,4.05-23.62,9.87-34.14" style="fill:#fff;"/></g><g style="clip-path:url(#clippath-10);"><path d="M74.43,127.34c2.27-.16,4.69-.16,7.12-.16h.16c-4.21,9.22-6.8,18.93-7.61,29.29-1.13,14.24.49,26.05,4.69,35.44,4.21,9.39,11.33,13.75,21.52,13.11,9.71-.65,18.12-6.63,25.4-17.96s12.46-23.95,15.86-37.86c-1.29-3.4-2.91-6.63-4.37-10.03,10.84,5.02,20.87,10.52,35.76,13.59,3.4,2.59,6.96,3.72,10.68,3.4,1.62-.16,3.4-.49,4.85-1.29,4.05.32,8.25.49,12.94.49h2.43c-1.13,2.75-2.43,5.5-3.72,8.25-7.44,14.08-15.53,21.36-24.27,22.01-5.34.32-10.36-1.94-15.37-6.63-5.02-4.85-10.36-12.46-15.86-22.82-4.37,17.64-9.55,32.2-15.21,43.85-9.39,19.09-20.06,28.96-31.88,29.77-9.06.65-16.5-5.18-22.17-17.64-5.66-12.3-7.61-30.1-5.83-53.07.49-11.49,2.27-22.17,4.85-31.71" style="fill:#e7e8e9;"/></g></g></svg>